<svg class="icon" viewBox="0 0 1024 1024" xmlns="http://www.w3.org/2000/svg" width="128" height="128"><defs><style/></defs><path d="M991.678 384.086h-95.936c-1.664 0-3.279.259-4.88.498-5.835-17.368-12.803-34.2-20.865-50.367 1.279-.975 2.592-1.936 3.772-3.088l67.83-67.856c12.487-12.457 12.487-32.731 0-45.188L805.944 82.405c-12.487-12.492-32.76-12.492-45.213 0l-67.86 67.855c-1.15 1.151-2.128 2.463-3.055 3.742-16.214-8.055-33.034-15-50.4-20.864.243-1.601.497-3.216.497-4.88v-95.93c0-17.655-14.326-31.981-31.98-31.981H416.067c-17.654 0-31.98 14.326-31.98 31.98v95.93c0 1.664.259 3.279.498 4.88-17.366 5.836-34.2 12.809-50.367 20.864-.975-1.279-1.936-2.59-3.088-3.742l-67.856-67.855c-12.457-12.492-32.731-12.492-45.188 0l-135.68 135.68c-12.492 12.457-12.492 32.731 0 45.188l67.855 67.856c1.151 1.15 2.463 2.127 3.742 3.088-8.055 16.18-15 33-20.864 50.367-1.601-.24-3.216-.498-4.88-.498H32.327c-17.654 0-31.98 14.326-31.98 31.98v191.867c0 17.654 14.326 31.981 31.98 31.981h95.93c1.664 0 3.279-.254 4.88-.497a397.797 397.797 0 0 0 20.864 50.4c-1.279.941-2.59 1.903-3.742 3.055l-67.855 67.86c-12.492 12.452-12.492 32.726 0 45.213l135.68 135.655c12.457 12.487 32.731 12.487 45.188 0l67.856-67.83c1.15-1.18 2.127-2.493 3.088-3.772 16.18 8.061 33 15.014 50.367 20.866-.24 1.6-.498 3.215-.498 4.879v95.936c0 17.648 14.326 31.974 31.98 31.974h191.867c17.654 0 31.98-14.326 31.98-31.974v-95.936c0-1.664-.254-3.279-.497-4.88a396.758 396.758 0 0 0 50.4-20.865c.941 1.279 1.903 2.592 3.055 3.772l67.86 67.83c12.453 12.487 32.726 12.487 45.213 0l135.656-135.655c12.487-12.487 12.487-32.761 0-45.213l-67.83-67.86c-1.18-1.15-2.493-2.128-3.772-3.055 8.061-16.214 15.014-33.035 20.866-50.4 1.6.243 3.215.497 4.879.497h95.936c17.648 0 31.974-14.326 31.974-31.981V416.067c.001-17.655-14.325-31.981-31.974-31.981zm-479.675 415.72c-158.921 0-287.809-128.858-287.809-287.803 0-158.921 128.888-287.809 287.81-287.809 158.978 0 287.802 128.888 287.802 287.81 0 158.944-128.824 287.802-287.803 287.802zM352.111 512.003c0-20.934 4.158-41.851 12.17-61.19a160.354 160.354 0 0 1 34.659-51.873 160.365 160.365 0 0 1 51.873-34.66 160.343 160.343 0 0 1 61.19-12.169c20.927 0 41.85 4.158 61.184 12.17a160.354 160.354 0 0 1 51.873 34.659 160.354 160.354 0 0 1 34.66 51.873 160.33 160.33 0 0 1 12.175 61.19c0 20.927-4.162 41.85-12.176 61.184a160.343 160.343 0 0 1-34.659 51.873 160.354 160.354 0 0 1-51.873 34.66 160.303 160.303 0 0 1-61.184 12.175 160.326 160.326 0 0 1-61.19-12.176 160.354 160.354 0 0 1-51.873-34.659 160.354 160.354 0 0 1-34.66-51.873c-8.012-19.334-12.169-40.257-12.169-61.184zm0 0"/></svg>